# xmcd
#
# Track frame offsets: 
#        150
#        12375
#        24535
#        37422
#        51795
#        64837
#        78205
#        92475
#        105840
#        117942
#        130100
#        142535
#        155587
#        169405
#        182840
#        194940
#        206960
#        218930
#        232467
#        245847
#        259390
#        272680
#        283545
#        296217
#        309660
#        320712
#        332745
#        343635
#
# Disc length: 4750 seconds
#
# Revision: 0
# Processed by: cddbd v1.5.1PL0 Copyright (c) Steve Scherf et al.
# Submitted via: ExactAudioCopy v0.95a5
#
DISCID=c0128c1c
DTITLE=Red Ingle - Tim-Tayshun
DYEAR=1900
DGENRE=
TTITLE0=Tim-Tayshun (Temptation)
TTITLE1=(I Love You) For Sentimental Reasons - (I Love You) For Sevent
TTITLE1=y Mental Reasons
TTITLE2=Song of Indians
TTITLE3=Them Durn Fool Things (These Foolish Things Remind Me of You)
TTITLE4=Git Up Off'n the Floor, Hannah
TTITLE5=Pagan Ninny's Keep 'Er Goin' Stomp
TTITLE6=Nowhere
TTITLE7=Pearly Maude
TTITLE8=Oh! Nick-O-Deemo
TTITLE9=Cigareetes, Whuskey, and Wild Wild Women
TTITLE10=Cigardust (Stardust)
TTITLE11=I Surrender, Dear
TTITLE12=Moe Zart's Turkey Trot
TTITLE13=The Prisoner of Love's Song
TTITLE14=You Can't Be Fit as a Fiddle (When You're Tight as a Drum)
TTITLE15=Serutan Yob (A Song for Backward Boys and Girls Under 40)
TTITLE16=An Irishman Will Never Fight (Till an Argument's at Hand)
TTITLE17=Turn Your Head Little Darlin'
TTITLE18='A' You're a Dopey Gal
TTITLE19=(He Came to Town Hot as A) Two Dollar Pistol
TTITLE20=Girlin' and Cuttin' Up Didoes
TTITLE21=Pool
TTITLE22=Comin' 'Round the Mountain March
TTITLE23=Run Little Eva
TTITLE24=People Are Funny
TTITLE25=Let Me In
TTITLE26=Chew Tobacco Rag
TTITLE27=Git Away from the Wimmin'
EXTD=
EXTT0=
EXTT1=
EXTT2=
EXTT3=
EXTT4=
EXTT5=
EXTT6=
EXTT7=
EXTT8=
EXTT9=
EXTT10=
EXTT11=
EXTT12=
EXTT13=
EXTT14=
EXTT15=
EXTT16=
EXTT17=
EXTT18=
EXTT19=
EXTT20=
EXTT21=
EXTT22=
EXTT23=
EXTT24=
EXTT25=
EXTT26=
EXTT27=
PLAYORDER=
